<mxfile host="app.diagrams.net" agent="Mozilla/5.0 (Macintosh; Intel Mac OS X 10_15_7) AppleWebKit/605.1.15 (KHTML, like Gecko) Version/18.0.1 Safari/605.1.15" version="24.7.17" pages="2">
  <diagram name="prac7" id="ocrxUZ5_WhYedUekO67J">
    <mxGraphModel dx="1492" dy="794" grid="0" gridSize="10" guides="1" tooltips="1" connect="1" arrows="1" fold="1" page="0" pageScale="1" pageWidth="827" pageHeight="1169" math="0" shadow="0">
      <root>
        <mxCell id="0" />
        <mxCell id="1" parent="0" />
        <mxCell id="gY43FWAQGeOtSLmUN1vo-3" value="노드 이름: init_answer&lt;div&gt;사용 함수 이름: init_answer&lt;/div&gt;&lt;div&gt;함수 기능&lt;/div&gt;&lt;div&gt;question을 받아서&amp;nbsp;&lt;/div&gt;&lt;div&gt;question과 generation을 내보냄&lt;/div&gt;" style="rounded=1;whiteSpace=wrap;html=1;" vertex="1" parent="1">
          <mxGeometry x="38" y="137" width="230" height="103" as="geometry" />
        </mxCell>
        <mxCell id="gY43FWAQGeOtSLmUN1vo-4" value="노드 이름: query&lt;div&gt;사용 함수 이름: query&lt;/div&gt;&lt;div&gt;함수 기능&lt;/div&gt;&lt;div&gt;데이터와 관련된 질문이면 질문에 알맞은 데이터를 찾는 python 코드를 생성하고 코드와 데이터를 다음으로 넘긴다&lt;/div&gt;" style="rounded=1;whiteSpace=wrap;html=1;" vertex="1" parent="1">
          <mxGeometry x="310" y="392" width="202" height="93" as="geometry" />
        </mxCell>
        <mxCell id="gY43FWAQGeOtSLmUN1vo-16" style="edgeStyle=none;curved=1;rounded=0;orthogonalLoop=1;jettySize=auto;html=1;exitX=0.5;exitY=1;exitDx=0;exitDy=0;fontSize=12;startSize=8;endSize=8;" edge="1" parent="1" source="gY43FWAQGeOtSLmUN1vo-5" target="gY43FWAQGeOtSLmUN1vo-7">
          <mxGeometry relative="1" as="geometry" />
        </mxCell>
        <mxCell id="gY43FWAQGeOtSLmUN1vo-5" value="노드 이름: answer&lt;div&gt;사용 함수 이름: answer&lt;/div&gt;&lt;div&gt;함수 기능&lt;/div&gt;&lt;div&gt;데이터와 무관한 질문이 들어오면 llm으로 답변 생성&lt;/div&gt;" style="rounded=1;whiteSpace=wrap;html=1;" vertex="1" parent="1">
          <mxGeometry x="-251" y="379" width="202" height="86" as="geometry" />
        </mxCell>
        <mxCell id="gY43FWAQGeOtSLmUN1vo-6" value="노드 이름: answer with data&lt;div&gt;사용 함수 이름: answer with data&lt;/div&gt;&lt;div&gt;함수 기능&lt;/div&gt;&lt;div&gt;query에서 받은 데이터를 바탕으로 질문에 답변을 생성한다.&lt;/div&gt;" style="rounded=1;whiteSpace=wrap;html=1;" vertex="1" parent="1">
          <mxGeometry x="246" y="578" width="202" height="87" as="geometry" />
        </mxCell>
        <mxCell id="gY43FWAQGeOtSLmUN1vo-7" value="end" style="rounded=0;whiteSpace=wrap;html=1;" vertex="1" parent="1">
          <mxGeometry x="-9" y="748" width="160" height="80" as="geometry" />
        </mxCell>
        <mxCell id="gY43FWAQGeOtSLmUN1vo-10" value="" style="edgeStyle=none;orthogonalLoop=1;jettySize=auto;html=1;rounded=0;fontSize=12;startSize=8;endSize=8;curved=1;" edge="1" parent="1">
          <mxGeometry width="140" relative="1" as="geometry">
            <mxPoint x="158" y="241" as="sourcePoint" />
            <mxPoint x="420" y="389" as="targetPoint" />
            <Array as="points" />
          </mxGeometry>
        </mxCell>
        <mxCell id="gY43FWAQGeOtSLmUN1vo-11" value="decide 함수 리턴값이 &#39;query&#39;일 경우" style="edgeLabel;html=1;align=center;verticalAlign=middle;resizable=0;points=[];fontSize=12;" vertex="1" connectable="0" parent="gY43FWAQGeOtSLmUN1vo-10">
          <mxGeometry x="-0.0571" y="-2" relative="1" as="geometry">
            <mxPoint x="5" as="offset" />
          </mxGeometry>
        </mxCell>
        <mxCell id="gY43FWAQGeOtSLmUN1vo-12" value="" style="edgeStyle=none;orthogonalLoop=1;jettySize=auto;html=1;rounded=0;fontSize=12;startSize=8;endSize=8;curved=1;exitX=0.452;exitY=1;exitDx=0;exitDy=0;exitPerimeter=0;entryX=0.619;entryY=0;entryDx=0;entryDy=0;entryPerimeter=0;" edge="1" parent="1" source="gY43FWAQGeOtSLmUN1vo-3" target="gY43FWAQGeOtSLmUN1vo-5">
          <mxGeometry width="140" relative="1" as="geometry">
            <mxPoint x="22" y="279" as="sourcePoint" />
            <mxPoint x="284" y="427" as="targetPoint" />
            <Array as="points" />
          </mxGeometry>
        </mxCell>
        <mxCell id="gY43FWAQGeOtSLmUN1vo-13" value="decide 함수 리턴값이 &#39;answer&#39;일 경우" style="edgeLabel;html=1;align=center;verticalAlign=middle;resizable=0;points=[];fontSize=12;" vertex="1" connectable="0" parent="gY43FWAQGeOtSLmUN1vo-12">
          <mxGeometry x="-0.0571" y="-2" relative="1" as="geometry">
            <mxPoint x="5" as="offset" />
          </mxGeometry>
        </mxCell>
        <mxCell id="gY43FWAQGeOtSLmUN1vo-15" style="edgeStyle=none;curved=1;rounded=0;orthogonalLoop=1;jettySize=auto;html=1;exitX=0.5;exitY=1;exitDx=0;exitDy=0;entryX=0.545;entryY=0.022;entryDx=0;entryDy=0;entryPerimeter=0;fontSize=12;startSize=8;endSize=8;" edge="1" parent="1" source="gY43FWAQGeOtSLmUN1vo-4" target="gY43FWAQGeOtSLmUN1vo-6">
          <mxGeometry relative="1" as="geometry" />
        </mxCell>
        <mxCell id="gY43FWAQGeOtSLmUN1vo-17" style="edgeStyle=none;curved=1;rounded=0;orthogonalLoop=1;jettySize=auto;html=1;entryX=0.688;entryY=0.063;entryDx=0;entryDy=0;entryPerimeter=0;fontSize=12;startSize=8;endSize=8;" edge="1" parent="1" source="gY43FWAQGeOtSLmUN1vo-6" target="gY43FWAQGeOtSLmUN1vo-7">
          <mxGeometry relative="1" as="geometry" />
        </mxCell>
      </root>
    </mxGraphModel>
  </diagram>
  <diagram name="prac8" id="ACAXuHAGRQgOSz9g5U-_">
    <mxGraphModel dx="1892" dy="794" grid="0" gridSize="10" guides="1" tooltips="1" connect="1" arrows="1" fold="1" page="0" pageScale="1" pageWidth="827" pageHeight="1169" math="0" shadow="0">
      <root>
        <mxCell id="EPcMoBXZpkj8eAeiIRZd-0" />
        <mxCell id="EPcMoBXZpkj8eAeiIRZd-1" parent="EPcMoBXZpkj8eAeiIRZd-0" />
        <mxCell id="EPcMoBXZpkj8eAeiIRZd-2" value="노드 이름: init_answer&lt;div&gt;사용 함수 이름: init_answer&lt;/div&gt;&lt;div&gt;함수 기능&lt;/div&gt;&lt;div&gt;route_chain에 question을 넣어서&lt;/div&gt;&lt;div&gt;generation&lt;/div&gt;&lt;div&gt;시장 조사와 관련된 질문이라면 rag&lt;/div&gt;&lt;div&gt;그래프를 그리라는 질문이면 excel_plot&lt;/div&gt;&lt;div&gt;다 아니라면, plain_answer을 generation&lt;/div&gt;&lt;div&gt;&lt;br&gt;&lt;/div&gt;" style="rounded=1;whiteSpace=wrap;html=1;" vertex="1" parent="EPcMoBXZpkj8eAeiIRZd-1">
          <mxGeometry x="8" y="98" width="279" height="149" as="geometry" />
        </mxCell>
        <mxCell id="EPcMoBXZpkj8eAeiIRZd-3" value="노드 이름: excel_data&lt;div&gt;사용 함수 이름: query&lt;/div&gt;&lt;div&gt;함수 기능&lt;/div&gt;&lt;div&gt;데이터와 관련된 질문이면 질문에 알맞은 데이터를 찾는 python 코드를 생성하고 코드와 데이터를 다음으로 넘긴다&lt;/div&gt;" style="rounded=1;whiteSpace=wrap;html=1;" vertex="1" parent="EPcMoBXZpkj8eAeiIRZd-1">
          <mxGeometry x="678" y="387" width="202" height="93" as="geometry" />
        </mxCell>
        <mxCell id="EPcMoBXZpkj8eAeiIRZd-4" style="edgeStyle=none;curved=1;rounded=0;orthogonalLoop=1;jettySize=auto;html=1;exitX=0.5;exitY=1;exitDx=0;exitDy=0;fontSize=12;startSize=8;endSize=8;" edge="1" parent="EPcMoBXZpkj8eAeiIRZd-1" source="EPcMoBXZpkj8eAeiIRZd-5" target="EPcMoBXZpkj8eAeiIRZd-7">
          <mxGeometry relative="1" as="geometry" />
        </mxCell>
        <mxCell id="EPcMoBXZpkj8eAeiIRZd-5" value="노드 이름: plain_answer&lt;div&gt;사용 함수 이름: answer&lt;/div&gt;&lt;div&gt;함수 기능&lt;/div&gt;&lt;div&gt;데이터와 무관한 질문이 들어오면 llm으로 답변 생성&lt;/div&gt;" style="rounded=1;whiteSpace=wrap;html=1;" vertex="1" parent="EPcMoBXZpkj8eAeiIRZd-1">
          <mxGeometry x="-469" y="402" width="202" height="86" as="geometry" />
        </mxCell>
        <mxCell id="EPcMoBXZpkj8eAeiIRZd-6" value="노드 이름: answer with data&lt;div&gt;사용 함수 이름: answer with data&lt;/div&gt;&lt;div&gt;함수 기능&lt;/div&gt;&lt;div&gt;query에서 받은 데이터를 바탕으로 질문에 답변을 생성한다.&lt;/div&gt;" style="rounded=1;whiteSpace=wrap;html=1;" vertex="1" parent="EPcMoBXZpkj8eAeiIRZd-1">
          <mxGeometry x="635" y="633" width="202" height="87" as="geometry" />
        </mxCell>
        <mxCell id="EPcMoBXZpkj8eAeiIRZd-7" value="end" style="rounded=0;whiteSpace=wrap;html=1;" vertex="1" parent="EPcMoBXZpkj8eAeiIRZd-1">
          <mxGeometry x="-9" y="748" width="160" height="80" as="geometry" />
        </mxCell>
        <mxCell id="EPcMoBXZpkj8eAeiIRZd-8" value="" style="edgeStyle=none;orthogonalLoop=1;jettySize=auto;html=1;rounded=0;fontSize=12;startSize=8;endSize=8;curved=1;exitX=0.563;exitY=0.98;exitDx=0;exitDy=0;exitPerimeter=0;entryX=0.436;entryY=-0.022;entryDx=0;entryDy=0;entryPerimeter=0;" edge="1" parent="EPcMoBXZpkj8eAeiIRZd-1" source="EPcMoBXZpkj8eAeiIRZd-2" target="EPcMoBXZpkj8eAeiIRZd-3">
          <mxGeometry width="140" relative="1" as="geometry">
            <mxPoint x="178" y="323" as="sourcePoint" />
            <mxPoint x="420" y="389" as="targetPoint" />
            <Array as="points" />
          </mxGeometry>
        </mxCell>
        <mxCell id="EPcMoBXZpkj8eAeiIRZd-9" value="generation값이 &#39;excel_data&#39;일 경우" style="edgeLabel;html=1;align=center;verticalAlign=middle;resizable=0;points=[];fontSize=12;" vertex="1" connectable="0" parent="EPcMoBXZpkj8eAeiIRZd-8">
          <mxGeometry x="-0.0571" y="-2" relative="1" as="geometry">
            <mxPoint x="5" as="offset" />
          </mxGeometry>
        </mxCell>
        <mxCell id="EPcMoBXZpkj8eAeiIRZd-10" value="" style="edgeStyle=none;orthogonalLoop=1;jettySize=auto;html=1;rounded=0;fontSize=12;startSize=8;endSize=8;curved=1;exitX=0.452;exitY=1;exitDx=0;exitDy=0;exitPerimeter=0;entryX=0.619;entryY=0;entryDx=0;entryDy=0;entryPerimeter=0;" edge="1" parent="EPcMoBXZpkj8eAeiIRZd-1" source="EPcMoBXZpkj8eAeiIRZd-2" target="EPcMoBXZpkj8eAeiIRZd-5">
          <mxGeometry width="140" relative="1" as="geometry">
            <mxPoint x="22" y="279" as="sourcePoint" />
            <mxPoint x="284" y="427" as="targetPoint" />
            <Array as="points" />
          </mxGeometry>
        </mxCell>
        <mxCell id="EPcMoBXZpkj8eAeiIRZd-11" value="generation 값이 &#39;plain_answer&#39;일 경우" style="edgeLabel;html=1;align=center;verticalAlign=middle;resizable=0;points=[];fontSize=12;" vertex="1" connectable="0" parent="EPcMoBXZpkj8eAeiIRZd-10">
          <mxGeometry x="-0.0571" y="-2" relative="1" as="geometry">
            <mxPoint x="5" as="offset" />
          </mxGeometry>
        </mxCell>
        <mxCell id="EPcMoBXZpkj8eAeiIRZd-12" style="edgeStyle=none;curved=1;rounded=0;orthogonalLoop=1;jettySize=auto;html=1;exitX=0.5;exitY=1;exitDx=0;exitDy=0;entryX=0.545;entryY=0.022;entryDx=0;entryDy=0;entryPerimeter=0;fontSize=12;startSize=8;endSize=8;" edge="1" parent="EPcMoBXZpkj8eAeiIRZd-1" source="EPcMoBXZpkj8eAeiIRZd-3" target="EPcMoBXZpkj8eAeiIRZd-6">
          <mxGeometry relative="1" as="geometry" />
        </mxCell>
        <mxCell id="EPcMoBXZpkj8eAeiIRZd-13" style="edgeStyle=none;curved=1;rounded=0;orthogonalLoop=1;jettySize=auto;html=1;entryX=0.688;entryY=0.063;entryDx=0;entryDy=0;entryPerimeter=0;fontSize=12;startSize=8;endSize=8;" edge="1" parent="EPcMoBXZpkj8eAeiIRZd-1" source="EPcMoBXZpkj8eAeiIRZd-6" target="EPcMoBXZpkj8eAeiIRZd-7">
          <mxGeometry relative="1" as="geometry" />
        </mxCell>
        <mxCell id="kwMsCDlpgmF_eIDhvcpo-0" value="노드 이름: rag&lt;div&gt;사용 함수 이름: retrieval&lt;/div&gt;&lt;div&gt;함수 기능&lt;/div&gt;&lt;div&gt;&lt;br&gt;&lt;/div&gt;" style="rounded=1;whiteSpace=wrap;html=1;" vertex="1" parent="EPcMoBXZpkj8eAeiIRZd-1">
          <mxGeometry x="-142" y="435" width="202" height="93" as="geometry" />
        </mxCell>
        <mxCell id="kwMsCDlpgmF_eIDhvcpo-1" value="노드 이름: excel_plot&lt;div&gt;사용 함수 이름: plot_excel&lt;/div&gt;&lt;div&gt;함수 기능&lt;/div&gt;&lt;div&gt;&lt;br&gt;&lt;/div&gt;" style="rounded=1;whiteSpace=wrap;html=1;" vertex="1" parent="EPcMoBXZpkj8eAeiIRZd-1">
          <mxGeometry x="100" y="435" width="202" height="93" as="geometry" />
        </mxCell>
      </root>
    </mxGraphModel>
  </diagram>
</mxfile>
